<?xml version="1.0" standalone="no"?>
<!DOCTYPE svg PUBLIC "-//W3C//DTD SVG 20010904//EN"
 "http://www.w3.org/TR/2001/REC-SVG-20010904/DTD/svg10.dtd">
<svg version="1.0" xmlns="http://www.w3.org/2000/svg"
 width="500.000000pt" height="500.000000pt" viewBox="0 0 500.000000 500.000000"
 preserveAspectRatio="xMidYMid meet">

<g transform="translate(0.000000,500.000000) scale(0.100000,-0.100000)"
fill="#000000" stroke="none">
<path d="M3180 4488 c-92 -13 -232 -62 -320 -111 -93 -53 -250 -204 -314 -304
-63 -99 -122 -222 -152 -322 l-26 -84 23 -18 c28 -21 53 -34 171 -88 172 -78
319 -203 386 -329 197 -370 -84 -851 -667 -1141 -212 -106 -457 -185 -671
-216 -134 -20 -410 -32 -410 -18 0 9 862 998 936 1073 l34 35 0 -146 c0 -144
0 -146 -26 -170 -41 -38 -54 -73 -54 -142 0 -80 29 -140 88 -181 109 -77 269
-17 312 117 22 71 -10 196 -55 213 -13 5 -15 53 -15 340 0 409 -3 423 -107
440 -31 4 -45 1 -76 -20 -21 -14 -41 -26 -45 -27 -4 0 -176 -192 -384 -427
-207 -235 -504 -571 -660 -747 -342 -387 -461 -525 -457 -529 5 -4 384 -72
452 -81 88 -12 360 -7 463 9 128 19 310 65 442 111 55 19 106 35 112 35 7 0
10 -120 10 -368 0 -362 0 -369 -21 -388 -38 -34 -59 -89 -59 -154 0 -92 37
-157 113 -197 80 -42 206 -6 257 74 53 83 51 170 -6 254 l-34 51 0 442 0 441
93 47 c185 95 381 244 496 378 405 470 354 1005 -124 1327 -33 22 -93 57 -132
77 -40 20 -73 42 -73 49 0 18 62 120 112 184 145 189 377 295 573 262 167 -27
303 -108 424 -253 56 -66 141 -185 174 -243 4 -6 -4 -25 -18 -41 -89 -106 -91
-261 -8 -442 14 -30 40 -86 58 -125 69 -147 88 -359 46 -519 -23 -86 -87 -214
-157 -313 -137 -193 -388 -323 -625 -323 -142 0 -228 -36 -300 -124 -88 -108
-89 -118 -89 -613 l0 -425 -38 -43 c-38 -43 -62 -100 -62 -147 0 -41 48 -124
88 -151 73 -50 154 -56 232 -17 117 59 146 215 59 314 l-29 34 1 413 c0 305 4
423 13 449 15 43 54 59 142 59 239 3 510 116 701 294 174 162 291 388 328 634
36 241 3 431 -120 684 -34 70 -45 104 -45 140 0 64 20 85 104 109 38 11 70 21
72 23 6 6 -147 280 -207 368 -269 401 -561 560 -929 507z"/>
</g>
</svg>
